<svg width="538" height="538" viewBox="0 0 538 538" fill="none" xmlns="http://www.w3.org/2000/svg">
<path d="M229.8 11.4001C221.2 22.5001 220.9 22.8001 216.3 23.5001C213.6 23.9001 206.2 25.7001 199.7 27.6001C193.2 29.5001 187.3 31.0001 186.7 31.0001C186 31.0001 179.8 28.7001 172.9 25.9001L160.3 20.8001L134.4 35.8001L108.5 50.8001L106.5 64.6001L104.5 78.5001L91.5001 91.5001L78.5001 104.5L64.6001 106.5L50.8001 108.5L35.8001 134.4L20.9001 160.2L25.9001 172.9C28.7001 179.8 31.0001 186 31.0001 186.7C31.0001 187.3 29.5001 193.2 27.6001 199.7C25.7001 206.2 23.9001 213.6 23.5001 216.3C22.8001 220.9 22.5001 221.2 11.4001 229.8L0.100098 238.5V269V299.5L11.4001 308.2C22.5001 316.8 22.8001 317.1 23.5001 321.7C23.9001 324.4 25.7001 331.8 27.6001 338.3C29.5001 344.8 31.0001 350.7 31.0001 351.3C31.0001 352 28.7001 358.2 25.9001 365.1L20.9001 377.8L35.8001 403.6L50.8001 429.5L64.6001 431.5L78.5001 433.5L91.5001 446.5L104.5 459.5L106.5 473.4L108.5 487.2L134.4 502.2L160.2 517.1L172.9 512.1C179.8 509.3 186 507 186.7 507C187.3 507 193.2 508.5 199.7 510.4C206.2 512.3 213.6 514.1 216.3 514.5C220.9 515.2 221.2 515.5 229.8 526.6L238.5 537.9H269H299.5L308.2 526.6C316.8 515.5 317.1 515.2 321.7 514.5C324.4 514.1 331.8 512.3 338.3 510.4C344.8 508.5 350.7 507 351.3 507C352 507 358.2 509.3 365.1 512.1L377.7 517.2L403.6 502.2L429.5 487.2L431.5 473.4L433.5 459.5L446.5 446.5L459.5 433.5L473.4 431.5L487.2 429.5L502.2 403.6L517.1 377.8L512.1 365.1C509.3 358.2 507 352 507 351.3C507 350.7 508.5 344.8 510.4 338.3C512.3 331.8 514.1 324.4 514.5 321.7C515.2 317.1 515.5 316.8 526.6 308.2L537.9 299.5V269V238.5L526.6 229.8C515.5 221.2 515.2 220.9 514.5 216.3C514.1 213.6 512.3 206.2 510.4 199.7C508.5 193.2 507 187.3 507 186.7C507 186 509.3 179.8 512.1 172.9L517.2 160.3L502.2 134.4L487.2 108.5L473.4 106.5L459.5 104.5L446.5 91.5001L433.5 78.5001L431.5 64.6001L429.5 50.8001L403.6 35.8001L377.8 20.9001L365.1 25.9001C358.2 28.7001 352 31.0001 351.3 31.0001C350.7 31.0001 344.8 29.5001 338.3 27.6001C331.8 25.7001 324.4 23.9001 321.7 23.5001C317.1 22.8001 316.8 22.5001 308.2 11.4001L299.5 0.100056H269H238.5L229.8 11.4001ZM291.1 38.0001C321.4 41.0001 347.3 48.6001 374.5 62.3001C444.1 97.6001 491.5 166.3 499.9 244.2C501.3 256.7 501.3 281.3 499.9 293.8C496.4 326.7 483.9 363.4 467 390.5C454 411.4 432.5 435.8 414.5 450C388.2 470.8 356.5 486.5 325.5 494.1C304.2 499.3 293.7 500.5 269 500.4C246.4 500.4 234.7 499.3 218 495.5C133.1 476 65.7001 410.3 44.4001 326.4C39.2001 305.7 37.6001 292.4 37.6001 269C37.6001 245.6 39.2001 232.3 44.4001 211.6C68.5001 116.3 151.1 46.3001 249.5 37.7001C258.7 36.9001 281.5 37.1001 291.1 38.0001Z" fill="#24FF00"/>
<path d="M537.9 238.4V268.9H500.95C500.95 259.625 500.6 250.35 499.9 244.1C491.5 166.2 444.1 97.4999 374.5 62.1999C347.3 48.4999 321.4 40.8999 291.1 37.8999C286.071 37.4285 277.421 37.1491 269 37.105V-6.10352e-05H299.5L308.2 11.3C316.8 22.4 317.1 22.7 321.7 23.3999C324.4 23.7999 331.8 25.5999 338.3 27.4999C344.8 29.3999 350.7 30.8999 351.3 30.8999C352 30.8999 358.2 28.5999 365.1 25.7999L377.8 20.8L403.6 35.6999L429.5 50.6999L431.5 64.4999L433.5 78.3999L446.5 91.3999L459.5 104.4L473.4 106.4L487.2 108.4L502.2 134.3L517.2 160.2L512.1 172.8C509.3 179.7 507 185.9 507 186.6C507 187.2 508.5 193.1 510.4 199.6C512.3 206.1 514.1 213.5 514.5 216.2C515.2 220.8 515.5 221.1 526.6 229.7L537.9 238.4Z" fill="#FF0000"/>
</svg>
