<svg width="1rem" height="1rem" viewBox="0 0 538 538" fill="none" xmlns="http://www.w3.org/2000/svg">
<path d="M229.8 11.3999C221.2 22.4999 220.9 22.7999 216.3 23.4999C213.6 23.8999 206.2 25.6999 199.7 27.5999C193.2 29.4999 187.3 30.9999 186.7 30.9999C186 30.9999 179.8 28.6999 172.9 25.8999L160.3 20.7999L134.4 35.7999L108.5 50.7999L106.5 64.5999L104.5 78.4999L91.5001 91.4999L78.5001 104.5L64.6001 106.5L50.8001 108.5L35.8001 134.4L20.9001 160.2L25.9001 172.9C28.7001 179.8 31.0001 186 31.0001 186.7C31.0001 187.3 29.5001 193.2 27.6001 199.7C25.7001 206.2 23.9001 213.6 23.5001 216.3C22.8001 220.9 22.5001 221.2 11.4001 229.8L0.100098 238.5V269V299.5L11.4001 308.2C22.5001 316.8 22.8001 317.1 23.5001 321.7C23.9001 324.4 25.7001 331.8 27.6001 338.3C29.5001 344.8 31.0001 350.7 31.0001 351.3C31.0001 352 28.7001 358.2 25.9001 365.1L20.9001 377.8L35.8001 403.6L50.8001 429.5L64.6001 431.5L78.5001 433.5L91.5001 446.5L104.5 459.5L106.5 473.4L108.5 487.2L134.4 502.2L160.2 517.1L172.9 512.1C179.8 509.3 186 507 186.7 507C187.3 507 193.2 508.5 199.7 510.4C206.2 512.3 213.6 514.1 216.3 514.5C220.9 515.2 221.2 515.5 229.8 526.6L238.5 537.9H269H299.5L308.2 526.6C316.8 515.5 317.1 515.2 321.7 514.5C324.4 514.1 331.8 512.3 338.3 510.4C344.8 508.5 350.7 507 351.3 507C352 507 358.2 509.3 365.1 512.1L377.7 517.2L403.6 502.2L429.5 487.2L431.5 473.4L433.5 459.5L446.5 446.5L459.5 433.5L473.4 431.5L487.2 429.5L502.2 403.6L517.1 377.8L512.1 365.1C509.3 358.2 507 352 507 351.3C507 350.7 508.5 344.8 510.4 338.3C512.3 331.8 514.1 324.4 514.5 321.7C515.2 317.1 515.5 316.8 526.6 308.2L537.9 299.5V269V238.5L526.6 229.8C515.5 221.2 515.2 220.9 514.5 216.3C514.1 213.6 512.3 206.2 510.4 199.7C508.5 193.2 507 187.3 507 186.7C507 186 509.3 179.8 512.1 172.9L517.2 160.3L502.2 134.4L487.2 108.5L473.4 106.5L459.5 104.5L446.5 91.4999L433.5 78.4999L431.5 64.5999L429.5 50.7999L403.6 35.7999L377.8 20.8999L365.1 25.8999C358.2 28.6999 352 30.9999 351.3 30.9999C350.7 30.9999 344.8 29.4999 338.3 27.5999C331.8 25.6999 324.4 23.8999 321.7 23.4999C317.1 22.7999 316.8 22.4999 308.2 11.3999L299.5 0.0999344H269H238.5L229.8 11.3999ZM291.1 37.9999C321.4 40.9999 347.3 48.5999 374.5 62.2999C444.1 97.5999 491.5 166.3 499.9 244.2C501.3 256.7 501.3 281.3 499.9 293.8C496.4 326.7 483.9 363.4 467 390.5C454 411.4 432.5 435.8 414.5 450C388.2 470.8 356.5 486.5 325.5 494.1C304.2 499.3 293.7 500.5 269 500.4C246.4 500.4 234.7 499.3 218 495.5C133.1 476 65.7001 410.3 44.4001 326.4C39.2001 305.7 37.6001 292.4 37.6001 269C37.6001 245.6 39.2001 232.3 44.4001 211.6C68.5001 116.3 151.1 46.2999 249.5 37.6999C258.7 36.8999 281.5 37.0999 291.1 37.9999Z" fill="black"/>
<path d="M254.626 47.192C232.726 49.392 220.726 51.492 204.626 56.192C115.726 82.292 50.9256 164.192 46.3256 256.392C43.8256 305.892 55.7256 351.192 81.9256 391.092C117.526 445.392 172.026 480.092 237.626 490.192C252.726 492.492 282.626 492.492 298.626 490.192C347.926 483.092 391.926 460.992 426.726 425.892C472.526 379.692 496.326 313.392 490.026 248.992C487.826 225.992 480.726 198.992 471.526 178.492C453.526 138.392 422.026 102.592 384.126 79.292C359.326 64.092 325.526 52.292 296.126 48.592C286.726 47.492 260.926 46.592 254.626 47.192ZM255.126 54.992C255.126 55.592 248.126 65.892 246.426 67.792C244.026 70.492 239.526 70.092 237.526 67.092C233.926 61.492 241.226 54.892 251.426 54.692C253.426 54.592 255.126 54.792 255.126 54.992ZM272.926 60.692C270.026 63.992 266.926 67.192 265.926 67.692C261.426 70.092 258.526 67.092 261.726 63.292C263.326 61.392 263.226 61.392 260.826 63.492L258.126 65.892V63.692C258.126 57.792 262.826 54.692 271.926 54.592H278.226L272.926 60.692ZM297.926 56.192C299.126 56.592 300.126 57.092 300.026 57.492C300.026 57.792 297.326 60.492 294.026 63.292C287.226 69.392 282.926 70.392 281.026 66.192C279.326 62.592 280.626 59.092 284.326 57.292C287.726 55.592 293.826 55.092 297.926 56.192ZM229.426 64.292C225.426 71.892 223.826 73.592 220.426 73.592C217.726 73.592 217.526 71.992 219.726 68.592C221.026 66.492 220.926 66.492 218.926 68.892C216.326 71.792 215.126 71.592 215.126 68.192C215.126 63.192 222.826 57.692 229.726 57.592H232.926L229.426 64.292ZM320.426 60.792C322.226 61.692 322.226 61.892 319.926 63.392C318.726 64.192 315.926 66.492 313.826 68.292C310.726 71.092 309.326 71.692 306.426 71.392C301.626 70.992 301.226 69.092 305.326 66.592C307.126 65.492 308.126 64.592 307.526 64.592C307.026 64.592 305.626 65.292 304.526 66.092C301.926 67.992 301.126 67.992 301.126 65.792C301.126 63.392 304.026 60.692 307.726 59.592C310.926 58.692 317.626 59.292 320.426 60.792ZM208.026 69.792C204.326 78.692 203.626 79.592 200.026 79.592C196.626 79.592 196.626 79.492 198.626 75.292C200.026 72.492 200.026 72.392 198.726 73.992C197.926 74.992 197.026 76.292 196.826 76.892C196.226 78.692 194.126 76.592 194.126 74.192C194.126 69.392 202.626 62.692 208.726 62.592C210.926 62.592 210.826 62.692 208.026 69.792ZM339.126 66.192C342.626 67.592 344.526 69.592 342.326 69.592C341.926 69.592 339.126 71.192 336.126 73.092C329.226 77.592 324.526 77.792 323.026 73.892C320.226 66.492 329.126 62.192 339.126 66.192ZM189.226 71.492C188.626 72.492 187.726 75.492 187.126 78.192C185.726 84.192 183.926 87.192 181.126 87.892C179.426 88.292 178.726 87.992 178.426 86.492C177.926 84.892 177.626 84.692 177.026 85.792C176.326 86.892 175.926 86.792 175.126 85.592C172.426 81.392 176.426 74.692 183.626 71.492C188.926 68.992 190.526 68.992 189.226 71.492ZM272.526 76.992L278.126 83.392L274.226 84.092C266.726 85.392 258.126 80.992 258.126 75.892C258.126 72.992 258.826 72.992 262.026 75.792L264.626 78.092L262.426 75.492C259.226 71.992 259.526 70.592 263.526 70.592C266.426 70.592 267.726 71.492 272.526 76.992ZM288.326 72.792C289.426 74.092 291.826 77.492 293.726 80.292L297.026 85.592H292.526C284.426 85.592 276.726 79.792 278.526 74.992C279.126 73.492 279.726 73.692 282.826 76.692L286.526 80.092L283.326 76.292C281.526 74.192 280.326 72.092 280.626 71.492C281.726 69.792 286.126 70.592 288.326 72.792ZM252.026 77.492C258.726 84.092 258.526 84.592 249.826 84.592C243.226 84.592 238.126 81.792 238.126 78.092C238.126 75.592 239.526 74.792 240.626 76.592C240.926 77.092 242.226 78.092 243.426 78.692C244.726 79.292 244.126 78.492 242.126 76.692C239.226 74.192 238.826 73.492 240.126 72.592C243.326 70.492 246.026 71.592 252.026 77.492ZM359.826 74.692C364.126 76.792 365.426 78.592 362.626 78.592C361.826 78.592 358.426 79.992 355.126 81.792C350.226 84.392 348.526 84.792 346.426 83.992C342.726 82.692 342.526 80.992 345.826 79.092C348.426 77.592 347.426 77.692 343.626 79.192C341.326 80.092 341.826 77.792 344.626 75.092C347.726 71.892 353.826 71.792 359.826 74.692ZM308.426 75.392C309.326 76.392 311.026 79.292 312.126 81.792C313.226 84.392 314.626 86.792 315.126 87.092C315.726 87.392 316.126 88.192 316.126 88.792C316.126 90.392 307.426 88.892 303.626 86.592C299.926 84.292 297.826 80.292 298.726 77.292C299.326 75.392 299.526 75.392 302.326 78.692C305.226 81.992 305.226 81.992 303.226 78.892C302.026 77.192 301.126 75.292 301.126 74.692C301.126 72.892 306.626 73.392 308.426 75.392ZM232.026 80.092C234.926 82.592 237.826 84.592 238.426 84.592C239.126 84.692 238.526 85.292 237.126 86.092C233.226 88.292 223.926 87.992 220.726 85.492C219.326 84.392 218.126 82.592 218.126 81.492C218.126 79.192 218.426 79.192 221.926 81.192C224.526 82.892 224.526 82.792 221.726 80.392C218.226 77.492 218.926 75.592 223.526 75.592C225.926 75.592 228.126 76.792 232.026 80.092ZM167.726 86.892C166.926 91.292 165.526 95.592 164.526 96.692C162.326 99.092 159.126 99.192 159.126 96.792C159.126 95.392 158.926 95.292 158.226 96.492C157.426 97.692 157.026 97.492 156.026 95.392C153.726 90.292 157.226 84.292 164.326 80.692C166.626 79.592 168.626 78.792 168.726 78.892C168.926 79.092 168.426 82.692 167.726 86.892ZM327.926 79.892C328.526 80.592 330.426 84.492 332.026 88.492L335.026 95.792L331.326 95.092C321.926 93.292 315.626 85.992 319.026 80.692C319.726 79.592 320.326 79.992 321.526 82.492C322.426 84.192 323.426 85.592 323.726 85.592C323.926 85.592 323.526 84.292 322.626 82.592C321.826 80.992 321.126 79.492 321.126 79.092C321.126 77.992 326.926 78.692 327.926 79.892ZM211.826 84.692C214.126 86.292 217.026 87.992 218.226 88.492C220.626 89.292 220.526 89.292 217.526 90.892C208.826 95.392 198.126 92.992 198.126 86.592C198.126 85.892 198.826 85.692 199.626 85.992C203.426 87.492 204.426 87.592 201.926 86.092C198.526 84.192 198.426 82.792 201.426 81.592C204.326 80.492 206.726 81.192 211.826 84.692ZM378.726 84.692C380.526 85.792 382.426 87.292 383.126 88.092C384.126 89.392 384.026 89.592 382.026 89.592C380.726 89.592 377.626 90.492 375.226 91.592C369.926 93.992 365.826 94.092 363.626 91.892C362.026 90.292 362.026 90.092 363.726 88.792C365.426 87.492 365.426 87.392 363.926 87.892C362.826 88.292 362.126 87.992 362.126 87.192C362.126 85.492 365.026 82.892 367.626 82.392C370.726 81.692 375.326 82.692 378.726 84.692ZM346.526 86.892C347.926 88.292 349.326 91.492 350.026 94.492C350.626 97.392 351.626 100.592 352.226 101.692C353.126 103.492 353.026 103.592 350.426 102.992C341.226 100.792 334.826 92.792 338.126 87.592C339.126 85.992 339.326 86.092 340.926 89.092C341.926 90.792 342.026 90.592 341.526 87.792C341.026 85.192 341.226 84.592 342.526 84.592C343.426 84.592 345.226 85.692 346.526 86.892ZM193.126 91.592C196.126 93.292 199.226 94.592 199.926 94.592C202.026 94.592 200.226 96.492 196.126 98.592C190.626 101.392 184.626 101.192 181.626 98.092C178.426 94.992 178.426 93.192 181.426 94.092C183.626 94.792 183.626 94.792 181.626 93.192C179.626 91.592 179.626 91.592 181.526 90.092C184.326 87.892 186.926 88.292 193.126 91.592ZM149.426 96.792C148.926 105.092 148.426 107.192 146.526 108.992C144.126 111.492 142.126 110.992 142.026 107.792C141.826 105.492 141.826 105.392 141.426 107.292C140.826 110.292 139.326 110.192 138.026 107.192C136.626 104.192 137.426 100.792 140.226 97.092C142.226 94.692 147.726 90.592 149.226 90.592C149.526 90.592 149.626 93.392 149.426 96.792ZM365.026 95.492C366.126 96.592 367.226 99.492 367.526 102.292C367.926 104.892 368.526 108.292 369.026 109.792C370.126 113.092 368.726 113.492 364.326 111.192C358.326 108.092 354.726 101.892 356.326 97.592C358.026 93.192 361.826 92.292 365.026 95.492ZM397.426 97.192C402.526 100.892 403.226 102.592 399.426 102.592C397.826 102.592 394.326 103.292 391.726 104.192C387.926 105.492 386.526 105.592 384.126 104.592C382.426 103.892 381.126 102.992 381.126 102.492C381.126 101.992 381.026 101.292 380.926 100.792C380.826 100.392 382.026 99.792 383.726 99.492L386.626 98.792L383.226 98.692L379.826 98.592L382.226 95.992C384.326 93.792 385.226 93.492 389.026 93.892C391.526 94.192 395.026 95.592 397.426 97.192ZM177.826 101.292C180.726 102.292 183.126 103.392 183.126 103.792C183.126 104.192 181.126 105.692 178.826 107.092C171.726 111.192 162.126 110.092 162.126 105.092C162.126 104.292 162.926 103.892 164.426 104.192L166.626 104.692L164.426 103.692C161.826 102.492 161.626 101.592 163.426 99.692C164.926 98.092 170.726 98.792 177.826 101.292ZM131.926 111.692C132.126 117.692 131.726 120.492 130.626 122.192C128.126 125.992 126.126 125.192 125.926 120.292L125.826 116.092L125.426 119.792C125.026 123.792 124.326 124.392 122.326 122.392C120.426 120.492 120.926 114.692 123.126 110.992C124.726 108.492 128.626 105.092 131.626 103.592C131.726 103.592 131.826 107.292 131.926 111.692ZM382.326 106.292C383.626 107.392 384.126 109.292 384.126 112.992C384.126 115.792 384.526 119.592 385.026 121.392C385.526 123.092 385.726 124.592 385.526 124.592C383.826 124.592 378.926 121.192 376.226 118.092C373.026 114.392 372.126 109.692 374.126 106.592C375.026 105.292 375.226 105.292 376.126 106.592C376.926 107.892 377.126 107.792 377.126 106.292C377.126 104.092 379.926 104.092 382.326 106.292ZM410.426 108.692C413.126 110.092 417.026 113.592 418.126 115.592C418.726 116.792 418.226 117.092 415.826 117.192C414.026 117.192 410.126 117.592 407.026 118.092C401.926 118.792 401.126 118.592 399.126 116.592C396.426 113.892 397.326 112.892 402.626 112.292L406.626 111.892L402.426 111.792C398.026 111.592 397.226 110.892 399.326 108.792C400.826 107.292 407.526 107.192 410.426 108.692ZM158.826 111.292C162.826 112.292 166.126 113.392 166.126 113.792C166.126 115.292 158.026 120.392 154.626 120.992C149.526 121.992 145.626 119.892 145.526 116.092C145.326 112.792 147.526 109.592 150.026 109.592C150.926 109.592 154.926 110.392 158.826 111.292ZM398.126 118.592C399.826 120.292 400.126 121.892 400.126 129.192V137.692L397.026 135.892C390.726 132.192 386.826 122.292 390.326 118.792C392.226 116.892 392.926 117.392 393.426 120.792C393.826 123.992 393.826 123.992 393.926 120.292C394.126 116.092 395.226 115.692 398.126 118.592ZM115.726 121.792C115.826 123.592 116.226 127.592 116.626 130.692C117.326 135.792 117.126 136.592 115.126 138.592C112.426 141.292 111.426 140.392 110.826 135.092L110.426 131.092L110.326 135.292C110.226 137.692 109.726 139.592 109.326 139.592C106.026 139.592 105.026 131.692 107.626 126.692C108.726 124.492 114.426 118.592 115.426 118.592C115.526 118.592 115.726 120.092 115.726 121.792ZM143.626 123.792C147.226 124.492 150.126 125.292 150.126 125.592C150.126 126.992 144.326 131.592 140.926 132.992C136.026 135.092 134.926 134.992 131.526 132.292L128.626 130.092L134.126 129.492L139.626 128.892L134.426 128.792C128.726 128.592 128.026 127.692 131.126 124.592C133.426 122.292 134.926 122.192 143.626 123.792ZM427.126 124.992C429.026 126.292 431.326 128.692 432.326 130.192L433.926 133.092L425.826 133.392C419.926 133.492 417.126 133.192 415.426 132.092C411.726 129.592 412.526 127.592 417.426 127.392L421.626 127.292L417.926 126.892C413.926 126.492 413.326 125.792 415.326 123.792C417.326 121.792 423.326 122.392 427.126 124.992ZM408.926 135.792C409.026 132.992 409.626 130.592 410.126 130.592C411.826 130.592 415.126 134.492 415.126 136.592C415.126 139.792 412.726 151.592 412.126 151.592C410.726 151.592 406.126 145.792 404.726 142.392C402.626 137.492 402.726 136.392 405.426 132.992L407.626 130.092L408.226 135.592L408.826 141.092L408.926 135.792ZM101.126 138.392C101.126 139.992 101.826 143.392 102.726 145.992C104.026 149.792 104.126 151.192 103.126 153.592C102.426 155.292 101.526 156.592 101.026 156.592C100.526 156.592 99.8256 156.692 99.4256 156.792C98.9256 156.892 98.3256 155.692 98.0256 153.992L97.3256 151.092L97.2256 154.492L97.1256 157.892L94.6256 155.592C90.7256 151.892 91.5256 145.692 96.7256 138.892C99.8256 134.892 101.126 134.692 101.126 138.392ZM134.426 140.692C130.726 146.992 120.826 150.892 117.326 147.392C115.426 145.492 115.926 144.792 119.426 144.292C122.526 143.892 122.526 143.892 118.926 143.792C114.626 143.592 114.226 142.492 117.126 139.592C118.826 137.892 120.426 137.592 127.726 137.592H136.226L134.426 140.692ZM439.226 140.892C442.226 142.892 447.126 148.892 447.126 150.592C447.126 151.192 436.426 150.892 432.426 149.992C429.826 149.492 427.126 146.992 427.126 144.992C427.126 144.092 428.326 143.492 430.426 143.492C433.426 143.292 433.426 143.292 430.926 142.892C427.726 142.392 427.326 141.192 429.926 139.692C432.626 138.092 435.626 138.392 439.226 140.892ZM421.526 150.792C421.426 154.392 421.526 154.492 421.826 151.592C422.026 149.692 422.626 147.692 423.126 147.192C424.326 145.992 428.126 149.292 428.126 151.492C428.126 154.992 424.526 167.592 423.626 167.292C423.126 167.092 421.326 165.092 419.726 162.792C416.426 158.192 415.626 151.092 418.026 148.292C420.326 145.392 421.626 146.292 421.526 150.792ZM121.726 155.392C119.326 160.092 113.526 164.592 109.826 164.592C108.026 164.592 105.926 164.092 105.126 163.592C103.826 162.692 103.826 162.492 105.126 161.592C106.426 160.792 106.326 160.592 104.926 160.592C102.526 160.592 102.626 157.392 104.926 155.192C106.226 154.092 109.226 153.392 114.126 153.092C118.126 152.792 121.626 152.392 121.926 152.092C123.226 150.792 123.126 152.692 121.726 155.392ZM90.6256 163.592C92.5256 167.392 92.5256 171.992 90.5256 173.992C88.5256 176.092 88.2256 175.992 87.0256 173.292L86.0256 171.092L86.5256 173.292C87.0256 175.992 85.5256 176.292 82.9256 173.892C81.6256 172.692 81.1256 170.892 81.1256 167.092C81.1256 162.792 81.7256 161.092 84.3256 157.492L87.5256 153.092L88.3256 156.892C88.7256 158.992 89.8256 161.992 90.6256 163.592ZM451.126 158.792C453.926 160.792 459.726 169.292 458.826 170.192C457.926 171.092 442.726 167.492 441.026 165.992C438.626 163.792 438.526 160.592 440.926 160.592C442.226 160.592 442.326 160.392 441.226 159.692C440.126 158.992 440.226 158.592 441.726 157.692C444.626 156.092 447.526 156.392 451.126 158.792ZM438.126 165.092C438.826 165.992 439.126 168.092 438.826 170.292C438.126 174.992 434.926 184.592 433.926 184.592C433.526 184.592 432.026 182.592 430.626 180.292C427.726 175.192 427.226 167.692 429.726 165.192C431.726 163.192 436.526 163.092 438.126 165.092ZM110.126 172.692C108.226 177.292 102.626 181.592 98.6256 181.592C92.7256 181.592 90.1256 176.592 94.0256 172.692C95.1256 171.592 98.0256 170.492 100.826 170.092C103.426 169.792 106.726 169.192 108.126 168.792C111.226 167.792 111.726 168.792 110.126 172.692ZM77.1256 175.192C77.1256 175.992 78.6256 179.392 80.3256 182.592C83.0256 187.492 83.4256 188.792 82.6256 191.192C81.2256 194.992 79.5256 195.192 77.6256 191.892C76.2256 189.392 76.3256 190.592 77.8256 194.292C78.7256 196.492 76.2256 195.692 73.6256 193.092C70.4256 189.992 70.3256 183.892 73.2256 177.892C75.3256 173.592 77.1256 172.292 77.1256 175.192ZM461.226 178.292C464.126 180.792 468.026 187.492 468.126 190.292C468.126 191.092 467.126 191.092 464.426 190.092C462.326 189.392 458.726 188.292 456.326 187.692C450.226 185.992 446.726 179.592 451.926 179.592C453.426 179.592 453.426 179.392 452.126 178.592C450.826 177.692 450.826 177.492 452.126 176.592C454.726 174.892 457.826 175.492 461.226 178.292ZM443.626 182.792C442.926 185.092 442.926 185.092 444.526 183.092C446.126 181.092 446.126 181.092 447.626 182.992C449.826 185.792 449.426 188.392 446.126 194.592C444.426 197.592 443.126 200.692 443.126 201.392C443.126 203.492 441.226 201.692 439.126 197.592C436.326 192.092 436.526 186.092 439.626 183.092C442.726 179.892 444.526 179.892 443.626 182.792ZM101.026 188.892C99.0256 196.092 92.1256 201.692 87.0256 200.092C84.5256 199.292 84.6256 198.192 87.4256 196.792C89.3256 195.792 89.2256 195.792 86.4256 196.292C83.8256 196.692 83.1256 196.492 83.1256 195.192C83.1256 192.292 87.5256 188.892 93.2256 187.592C96.2256 186.892 99.3256 185.992 100.126 185.492C102.126 184.492 102.226 184.692 101.026 188.892ZM68.1256 195.492C68.1256 195.992 69.7256 198.692 71.6256 201.492C73.9256 204.892 75.1256 207.692 75.1256 209.992C75.1256 214.392 73.3256 215.592 70.9256 212.592C69.9256 211.392 69.1256 210.792 69.1256 211.292C69.1256 211.792 69.6256 212.692 70.3256 213.392C71.9256 214.992 70.7256 215.892 68.2256 215.092C63.5256 213.592 61.9256 205.792 64.7256 198.592C66.2256 194.992 68.1256 193.192 68.1256 195.492ZM468.626 197.792C471.626 200.092 475.026 206.792 475.126 210.192C475.126 212.392 475.026 212.292 467.926 209.492C459.026 205.792 458.126 205.092 458.126 201.492C458.126 198.092 458.226 198.092 462.426 200.092C465.226 201.492 465.326 201.492 463.726 200.192C462.726 199.392 461.426 198.492 460.826 198.292C460.226 198.092 460.126 197.392 460.526 196.792C461.626 194.892 465.626 195.392 468.626 197.792ZM451.726 201.092C450.226 204.892 450.126 205.892 451.626 203.292C453.526 199.892 454.926 199.892 456.126 203.092C457.326 206.092 456.326 208.992 452.126 214.692C450.526 216.992 449.126 219.592 449.126 220.492C449.026 223.092 446.226 218.792 445.026 214.192C443.726 209.392 444.626 204.092 447.226 201.492C449.526 199.192 452.626 198.892 451.726 201.092ZM93.1256 208.692C91.0256 216.292 83.7256 221.492 79.2256 218.692C78.1256 217.992 78.5256 217.392 81.0256 216.192C82.7256 215.292 84.1256 214.292 84.1256 213.992C84.1256 213.792 82.8256 214.192 81.1256 215.092C79.5256 215.892 78.0256 216.592 77.6256 216.592C76.5256 216.592 77.2256 210.792 78.4256 209.692C80.5256 207.992 93.6256 202.892 93.9256 203.692C94.1256 204.092 93.7256 206.392 93.1256 208.692ZM66.8256 223.892C69.2256 226.592 70.1256 228.592 70.1256 230.992C70.1256 234.992 68.7256 236.292 66.5256 234.492C65.3256 233.492 65.2256 233.592 65.7256 234.992C66.7256 237.492 63.4256 236.992 60.6256 234.092C57.5256 231.092 56.9256 223.892 59.2256 217.792L60.2256 215.292L61.8256 217.692C62.7256 218.992 64.9256 221.792 66.8256 223.892ZM474.026 218.192C476.926 220.292 480.026 226.992 480.126 231.192V234.392L473.426 230.892C465.826 226.892 464.126 225.292 464.126 221.892C464.126 219.192 465.726 218.992 469.126 221.192C471.226 222.492 471.226 222.392 468.826 220.392C467.326 219.092 466.426 217.692 466.726 217.292C468.026 216.092 471.626 216.492 474.026 218.192ZM458.126 220.092C458.126 220.392 457.426 221.892 456.526 223.392C454.826 225.992 454.926 225.992 457.326 223.192C460.226 219.692 462.126 220.392 462.126 224.992C462.126 227.392 460.926 229.592 457.626 233.492C455.126 236.392 453.126 239.292 453.126 239.892C453.026 240.592 452.426 239.992 451.626 238.592C448.926 233.792 450.026 222.692 453.526 220.392C454.826 219.492 458.126 219.292 458.126 220.092ZM87.7256 226.192C86.6256 234.492 80.9256 240.592 75.8256 238.992C73.9256 238.392 73.9256 238.192 77.2256 235.392C80.5256 232.492 80.5256 232.492 77.4256 234.492C73.2256 237.292 72.1256 237.092 72.1256 233.792C72.1256 230.292 74.1256 228.392 80.3256 225.592C82.9256 224.492 85.3256 223.092 85.6256 222.592C85.9256 221.992 86.7256 221.592 87.3256 221.592C88.0256 221.592 88.2256 223.192 87.7256 226.192ZM61.9256 243.692C67.9256 250.492 68.9256 254.792 64.7256 256.692C59.0256 259.292 54.1256 254.192 54.1256 245.892C54.1256 241.592 55.0256 237.592 56.0256 237.692C56.3256 237.692 59.0256 240.392 61.9256 243.692ZM478.126 240.392C481.026 243.292 483.126 248.992 483.126 253.792C483.126 255.392 482.926 256.592 482.726 256.592C482.126 256.592 471.826 249.592 469.926 247.892C467.426 245.592 467.626 241.092 470.326 239.192C473.426 236.992 474.926 237.192 478.126 240.392ZM464.526 241.192C467.526 244.092 466.426 247.192 460.226 253.492C453.526 260.192 453.126 260.092 453.126 250.692C453.126 246.292 453.626 244.192 455.226 242.192C457.626 239.192 462.126 238.692 464.526 241.192ZM82.1256 253.592C79.9256 257.992 76.3256 260.292 73.5256 259.192C72.0256 258.592 72.2256 257.992 75.2256 254.892L78.6256 251.192L74.8256 254.392C70.6256 257.892 69.1256 257.792 69.1256 253.992C69.1256 251.192 71.5256 248.692 78.6256 244.192L83.6256 241.092L83.9256 245.292C84.1256 248.092 83.5256 250.892 82.1256 253.592ZM66.2256 271.792C68.6256 276.292 65.6256 279.192 61.8256 275.992C59.9256 274.392 59.9256 274.492 62.0256 276.892L64.4256 279.592H62.2256C56.3256 279.592 53.1256 274.692 53.1256 265.592V259.492L59.2256 264.792C62.5256 267.692 65.7256 270.792 66.2256 271.792ZM82.6256 269.292C81.8256 274.492 77.9256 279.592 74.5256 279.592C71.5256 279.592 71.5256 278.892 74.4256 275.692L76.6256 273.092L74.0256 275.292C70.5256 278.492 69.1256 278.192 69.1256 274.292C69.1256 271.592 70.1256 270.192 75.3256 265.392L81.6256 259.792L82.4256 262.392C82.8256 263.892 82.9256 266.992 82.6256 269.292ZM464.126 260.292C464.126 260.692 463.126 262.092 461.926 263.492C459.826 265.892 459.826 265.892 462.726 263.292C466.226 260.192 467.126 260.592 467.126 265.192C467.126 267.892 466.326 269.092 463.026 271.792C460.726 273.592 457.826 276.092 456.626 277.392L454.326 279.692L453.626 275.692C452.326 268.192 456.726 259.592 461.826 259.592C463.126 259.592 464.126 259.892 464.126 260.292ZM478.726 261.092C481.826 263.192 483.226 267.592 482.926 273.892L482.626 279.592L475.926 273.292C471.426 269.192 469.126 266.292 469.126 264.792C469.126 261.692 471.726 260.992 474.426 263.192C476.326 264.792 476.326 264.692 474.226 262.292L471.826 259.592H474.226C475.626 259.592 477.626 260.292 478.726 261.092ZM83.1256 287.892C83.1256 294.892 80.5256 299.592 76.5256 299.592C74.1256 299.592 73.3256 298.192 75.1256 297.092C75.6256 296.792 76.6256 295.492 77.2256 294.292C77.8256 292.992 77.0256 293.592 75.2256 295.592C72.7256 298.492 72.0256 298.892 71.1256 297.592C69.0256 294.392 70.1256 291.692 75.9256 285.792C79.4256 282.192 81.9256 280.292 82.3256 280.992C82.7256 281.592 83.1256 284.692 83.1256 287.892ZM463.526 280.292C463.826 280.692 462.726 282.592 460.926 284.492L457.626 287.992L461.426 284.792C465.626 281.292 467.126 281.392 467.126 285.192C467.126 288.092 464.726 290.492 457.426 295.192L452.126 298.492V293.892C452.126 288.692 454.426 283.192 457.526 281.092C459.726 279.492 462.326 279.192 463.526 280.292ZM478.626 283.292C480.926 285.492 482.126 289.092 482.126 293.392C482.126 297.692 481.226 301.592 480.226 301.492C479.926 301.492 477.226 298.792 474.426 295.492C470.526 291.192 469.126 288.792 469.126 286.692C469.126 281.992 475.226 279.792 478.626 283.292ZM59.2256 286.192C67.0256 291.392 68.1256 292.592 68.1256 295.692C68.1256 297.692 67.3256 299.092 65.5256 300.292C63.2256 301.792 62.6256 301.792 60.3256 300.492C56.7256 298.492 54.1256 293.692 53.4256 287.692C53.1256 284.892 53.1256 282.592 53.4256 282.592C53.7256 282.592 56.3256 284.192 59.2256 286.192ZM86.1256 308.692C86.1256 314.892 83.5256 319.592 80.0256 319.592C77.7256 319.592 77.7256 319.292 79.7256 315.792C81.4256 313.192 81.3256 313.192 78.9256 315.992C76.0256 319.492 74.1256 318.792 74.1256 314.192C74.1256 311.792 75.3256 309.592 78.6256 305.692C81.1256 302.792 83.1256 299.892 83.1256 299.292C83.2256 298.592 83.8256 299.192 84.6256 300.592C85.4256 301.992 86.0256 305.592 86.1256 308.692ZM460.726 300.292C462.126 300.792 461.926 301.392 459.026 303.892L455.626 306.792L458.826 304.692C463.026 301.892 464.126 302.092 464.126 305.392C464.126 308.892 462.126 310.792 455.926 313.592C453.326 314.692 450.926 316.092 450.626 316.592C450.326 317.192 449.526 317.592 448.926 317.592C447.226 317.592 448.826 308.892 451.126 305.092C452.226 303.392 454.126 301.392 455.326 300.792C458.126 299.492 458.526 299.392 460.726 300.292ZM476.426 305.692C478.626 308.792 479.026 316.292 477.226 320.992L476.026 323.892L474.426 321.492C473.526 320.192 471.226 317.392 469.426 315.292C466.626 312.192 466.026 310.792 466.326 307.892C466.726 303.092 468.626 302.692 471.126 306.792C472.226 308.592 473.126 309.592 473.126 308.992C473.126 308.492 472.426 307.092 471.626 305.992C469.626 303.292 469.826 302.392 472.226 302.792C473.426 302.992 475.326 304.292 476.426 305.692ZM70.9256 313.392C72.5256 315.492 72.4256 319.592 70.7256 319.592C70.0256 319.592 68.1256 318.692 66.5256 317.492C64.1256 315.792 64.1256 315.892 66.9256 318.292C70.3256 321.392 70.2256 322.592 66.7256 322.592C61.7256 322.592 56.2256 314.892 56.1256 307.992V304.792L62.9256 308.292C66.6256 310.292 70.2256 312.592 70.9256 313.392ZM91.2256 324.992C92.5256 329.792 91.6256 335.092 89.0256 337.692C86.9256 339.792 83.6256 340.292 84.4256 338.292C85.9256 334.592 86.0256 333.392 84.6256 335.792C82.7256 339.292 81.3256 339.292 80.1256 336.092C78.9256 333.092 79.9256 330.192 84.1256 324.492C85.7256 322.192 87.1256 319.592 87.1256 318.692C87.2256 316.092 90.0256 320.392 91.2256 324.992ZM457.026 320.492C458.126 321.192 457.726 321.792 455.226 322.992C453.526 323.892 452.126 324.892 452.126 325.192C452.126 325.392 453.426 324.992 455.126 324.092C459.026 322.092 459.126 322.092 459.126 325.492C459.126 329.092 458.226 329.792 449.226 333.492L441.926 336.492L442.626 332.792C444.426 323.392 451.726 317.092 457.026 320.492ZM470.126 325.392C473.126 327.792 473.826 334.392 471.726 340.092C470.226 343.992 468.126 346.192 468.126 343.792C468.126 343.392 466.526 340.592 464.626 337.592C461.026 332.092 460.026 326.392 462.326 324.992C462.926 324.592 464.226 325.292 465.326 326.592C467.326 328.992 467.726 328.592 466.126 325.492C464.726 322.992 467.026 322.892 470.126 325.392ZM76.8256 333.792C78.0256 334.792 78.7256 340.592 77.6256 340.592C77.2256 340.592 75.6256 339.892 73.8256 339.092C71.0256 337.692 70.9256 337.692 72.5256 338.992C73.5256 339.792 74.9256 340.692 75.5256 340.992C76.2256 341.292 76.1256 341.792 75.1256 342.492C73.3256 343.892 69.3256 342.992 66.7256 340.792C64.4256 338.692 61.2256 331.892 61.1256 328.992C61.1256 326.792 61.2256 326.892 68.3256 329.692C72.2256 331.392 76.1256 333.192 76.8256 333.792ZM97.5256 341.992C100.026 347.192 99.6256 353.192 96.6256 356.092C93.5256 359.292 91.7256 359.292 92.6256 356.292C93.3256 354.092 93.3256 354.092 91.7256 356.092C90.1256 358.092 90.1256 358.092 88.6256 356.192C86.4256 353.392 86.8256 350.792 90.1256 344.592C91.8256 341.592 93.1256 338.492 93.1256 337.692C93.1256 335.592 95.6256 338.092 97.5256 341.992ZM450.126 339.592C451.426 340.492 451.426 340.692 450.126 341.592C448.926 342.392 449.026 342.592 450.926 342.592C452.226 342.592 453.126 343.192 453.126 344.092C453.126 346.992 448.526 350.292 443.226 351.492C440.326 352.092 437.126 353.092 436.026 353.692C434.226 354.592 434.126 354.492 434.726 351.892C436.926 342.592 444.926 336.192 450.126 339.592ZM462.626 346.092C465.826 349.192 465.926 355.292 463.026 361.292C460.926 365.592 459.126 366.892 459.126 363.992C459.126 363.192 457.626 359.792 455.926 356.592C453.226 351.692 452.826 350.392 453.626 347.992C455.026 344.192 456.726 343.992 458.626 347.292C460.126 349.892 460.026 348.892 458.526 345.092C457.626 342.792 459.926 343.292 462.626 346.092ZM79.9256 351.492C86.0256 353.192 89.5256 359.592 84.3256 359.592C82.8256 359.592 82.8256 359.792 84.1256 360.592C85.4256 361.492 85.4256 361.692 84.1256 362.592C79.9256 365.292 73.2256 361.292 70.0256 354.092C67.2256 348.092 67.5256 347.492 71.9256 349.092C73.9256 349.792 77.5256 350.892 79.9256 351.492ZM105.626 358.892C109.726 366.092 108.626 375.592 103.626 375.592C102.726 375.592 102.426 374.992 102.826 373.792C103.326 372.392 103.126 372.392 101.826 374.092C100.526 375.792 100.126 375.792 98.6256 374.592C97.4256 373.592 97.1256 372.192 97.4256 369.192C98.0256 364.392 101.326 354.592 102.326 354.592C102.726 354.592 104.226 356.592 105.626 358.892ZM440.526 357.792C443.426 359.092 444.526 361.592 443.626 364.592C442.726 367.292 440.326 368.392 433.426 369.492C430.226 369.892 426.826 370.692 425.826 371.092C424.026 371.792 424.026 371.692 425.626 367.992C427.626 363.192 430.726 359.692 434.626 357.992C436.326 357.292 437.726 356.692 437.826 356.592C437.926 356.592 439.126 357.092 440.526 357.792ZM449.226 365.792L450.226 368.092L449.726 365.792C449.226 363.192 450.726 362.892 453.326 365.292C454.626 366.492 455.126 368.292 455.126 372.092C455.126 376.392 454.526 378.092 451.926 381.692L448.726 386.092L447.926 382.292C447.526 380.192 446.426 377.192 445.626 375.592C443.726 371.792 443.726 367.192 445.726 365.192C447.726 363.092 448.026 363.192 449.226 365.792ZM85.4256 369.992C89.8256 370.792 94.1256 372.192 95.2256 373.192C97.6256 375.392 97.7256 378.592 95.4256 378.592C93.9256 378.592 93.8256 378.792 95.0256 379.492C97.2256 380.892 92.0256 382.992 88.5256 382.192C85.1256 381.292 80.0256 376.092 78.4256 371.792C77.8256 369.992 77.3256 368.592 77.4256 368.592C77.5256 368.592 81.1256 369.292 85.4256 369.992ZM116.526 376.392C120.126 381.592 120.726 388.892 117.726 391.192C114.826 393.292 114.626 392.992 114.726 387.892C114.826 383.692 114.826 383.592 114.426 387.092C114.226 389.292 113.626 391.492 113.126 391.992C111.926 393.192 108.126 389.892 108.126 387.692C108.126 384.192 111.726 371.592 112.626 371.892C113.226 372.092 114.926 374.092 116.526 376.392ZM431.126 375.592C432.426 376.492 432.426 376.692 431.126 377.592C429.826 378.392 429.926 378.592 431.426 378.592C433.626 378.592 433.626 381.392 431.426 383.792C430.326 385.092 428.426 385.592 424.726 385.592C421.926 385.592 418.126 385.992 416.326 386.492C414.626 386.992 413.126 387.192 413.126 386.992C413.126 385.292 416.526 380.392 419.626 377.692C423.326 374.492 428.026 373.592 431.126 375.592ZM438.426 385.592C438.726 387.592 438.926 387.392 439.026 384.692L439.126 381.292L441.626 383.592C443.226 385.092 444.126 386.992 444.126 389.092C444.126 392.992 440.326 400.392 437.326 402.392C435.226 403.792 435.126 403.692 435.126 400.792C435.126 399.192 434.426 395.892 433.626 393.492C431.926 388.692 432.226 385.592 434.726 383.092C436.626 381.192 437.726 381.992 438.426 385.592ZM103.826 389.192C108.926 390.192 111.026 395.492 106.426 395.692C104.026 395.892 103.926 395.892 105.926 396.292C108.826 396.892 108.726 398.392 105.726 399.692C102.526 401.192 99.0256 400.292 95.1256 396.992C92.6256 394.792 89.1256 389.792 89.1256 388.292C89.1256 387.892 100.826 388.492 103.826 389.192ZM127.426 390.292C130.026 393.092 133.126 399.292 133.126 401.892C133.126 402.692 132.126 404.592 130.926 406.192L128.626 409.092L128.026 403.592L127.426 398.092L127.326 403.292C127.226 406.192 126.726 408.592 126.126 408.592C124.426 408.592 121.126 404.692 121.126 402.592C121.126 399.392 123.526 387.592 124.126 387.592C124.526 387.592 125.926 388.792 127.426 390.292ZM418.926 391.792C420.826 393.692 420.326 394.392 416.926 394.892C413.726 395.292 413.726 395.292 417.426 395.392C421.626 395.592 422.026 396.692 419.126 399.592C417.426 401.292 415.826 401.592 408.526 401.592H400.026L401.826 398.492C405.526 392.192 415.426 388.292 418.926 391.792ZM425.426 404.092L425.826 408.092L425.926 403.792C426.126 399.492 426.826 398.692 428.926 400.792C430.426 402.292 430.526 408.992 429.026 411.892C427.726 414.392 423.026 419.592 422.126 419.592C421.326 419.592 419.126 408.892 419.126 405.292C419.126 402.292 422.826 397.892 424.126 399.192C424.626 399.692 425.126 401.892 425.426 404.092ZM144.726 408.592C147.326 412.392 147.926 418.392 145.926 420.392C144.026 422.292 143.326 421.792 142.826 418.292C142.426 415.192 142.426 415.192 142.326 418.792C142.126 423.092 141.026 423.492 138.126 420.592C136.426 418.892 136.126 417.292 136.126 409.992V401.492L139.226 403.292C140.926 404.292 143.426 406.692 144.726 408.592ZM404.726 406.792L407.626 409.092L402.126 409.692L396.626 410.292L401.926 410.392C404.726 410.492 407.126 410.992 407.126 411.592C407.126 413.192 403.326 416.592 401.526 416.592C399.426 416.592 386.826 414.392 386.226 413.892C385.226 413.192 390.926 408.192 394.626 406.492C399.826 404.092 401.226 404.092 404.726 406.792ZM120.726 407.092C124.526 409.592 123.726 411.592 118.926 411.792L114.626 411.892L118.426 412.292C122.326 412.692 122.926 413.392 120.926 415.392C117.426 418.892 107.526 415.092 103.926 408.892L102.226 405.992L110.326 405.792C116.226 405.592 119.026 405.992 120.726 407.092ZM154.026 415.992C158.626 418.492 163.126 424.292 163.126 427.892C163.126 429.692 162.626 431.792 162.126 432.592C161.226 433.892 161.026 433.892 160.126 432.592C159.326 431.292 159.126 431.392 159.126 432.792C159.126 435.092 156.326 435.092 153.926 432.892C152.626 431.792 152.126 429.892 152.126 426.192C152.126 423.392 151.726 419.592 151.226 417.792C150.126 414.092 150.226 414.092 154.026 415.992ZM410.326 418.792L410.426 423.092L410.826 419.292C411.226 415.392 411.926 414.792 413.926 416.792C417.426 420.292 413.626 430.192 407.426 433.792L404.526 435.492L404.326 427.392C404.126 421.492 404.526 418.692 405.626 416.992C408.126 413.192 410.126 413.992 410.326 418.792ZM389.726 419.692C392.426 421.892 391.226 423.092 386.426 422.992C382.226 422.892 382.126 422.892 385.626 423.292C387.826 423.492 390.026 424.092 390.526 424.592C391.726 425.792 388.426 429.592 386.226 429.592C383.526 429.592 370.126 426.092 370.126 425.392C370.126 424.392 376.226 419.892 379.126 418.692C382.026 417.492 387.726 417.992 389.726 419.692ZM137.226 422.692C139.826 425.292 138.826 426.292 133.626 426.892L129.626 427.292L133.926 427.392C138.226 427.592 139.026 428.292 136.926 430.392C135.426 431.892 128.726 431.992 125.826 430.492C123.026 428.992 119.226 425.592 118.026 423.392C117.326 422.092 117.526 421.892 118.926 422.292C119.926 422.492 122.326 422.292 124.226 421.792C130.126 420.092 134.926 420.392 137.226 422.692ZM176.026 430.892C179.626 434.192 181.126 438.392 179.926 441.792C178.726 445.192 177.426 445.392 176.826 442.292C176.426 440.392 176.426 440.492 176.226 442.792C175.926 449.192 169.626 444.292 168.626 436.892C167.926 431.092 167.626 429.692 166.626 427.292C165.926 425.492 166.026 425.492 169.726 427.092C171.826 427.992 174.626 429.692 176.026 430.892ZM394.226 431.292C394.426 433.692 394.426 433.792 394.826 431.792C395.426 428.892 396.926 428.992 398.226 431.992C399.726 435.192 398.826 438.692 395.526 442.592C393.326 445.092 388.326 448.592 386.826 448.592C386.426 448.592 387.026 436.892 387.726 433.892C388.726 428.792 394.026 426.692 394.226 431.292ZM372.526 431.192C374.526 433.192 374.626 437.992 372.626 439.592C371.726 440.292 369.626 440.592 367.426 440.292C362.726 439.692 353.126 436.392 353.126 435.392C353.126 434.992 355.026 433.592 357.426 432.192C362.426 429.192 370.026 428.692 372.526 431.192ZM154.926 436.292C156.326 438.292 155.626 439.292 152.126 439.892C150.126 440.192 150.326 440.392 153.026 440.492L156.426 440.592L154.126 443.092C152.626 444.692 150.726 445.592 148.626 445.592C144.726 445.592 137.326 441.792 135.326 438.792C133.926 436.692 134.026 436.592 136.726 436.592C138.326 436.592 141.426 435.892 143.626 435.092C148.226 433.392 153.126 433.892 154.926 436.292ZM191.226 438.192C197.126 441.192 200.526 447.792 198.126 451.592C197.126 453.192 196.926 453.092 195.326 450.092C194.326 448.392 194.226 448.592 194.726 451.292C195.226 453.992 195.026 454.592 193.726 454.592C190.726 454.592 187.426 450.092 186.226 444.692C185.626 441.792 184.626 438.592 184.026 437.492C183.126 435.692 183.226 435.592 185.826 436.192C187.326 436.592 189.826 437.492 191.226 438.192ZM354.626 441.092C357.826 444.192 357.826 445.992 354.926 445.092C352.626 444.392 352.626 444.392 354.626 445.992C356.626 447.592 356.626 447.592 354.726 449.092C351.926 451.292 349.326 450.892 343.126 447.592C340.126 445.892 337.026 444.592 336.226 444.592C334.126 444.592 336.926 441.592 340.626 439.992C345.726 437.792 351.826 438.192 354.626 441.092ZM377.126 442.292C377.126 443.692 377.326 443.792 378.026 442.692C378.726 441.592 379.126 441.692 380.026 443.392C382.726 448.392 379.526 454.392 372.126 458.092C369.426 459.492 367.126 460.492 367.126 460.392C367.526 455.192 370.326 443.992 371.726 442.492C373.926 440.092 377.126 439.992 377.126 442.292ZM211.226 446.192C216.726 448.992 219.526 454.792 217.226 458.492C216.526 459.592 215.926 459.192 214.726 456.692C213.826 454.992 212.826 453.592 212.526 453.592C212.326 453.592 212.726 454.892 213.626 456.592C215.626 460.492 215.626 460.592 212.226 460.592C208.626 460.592 207.926 459.692 204.226 450.692L201.226 443.392L204.926 444.092C206.926 444.492 209.726 445.392 211.226 446.192ZM172.526 447.192C174.626 449.192 174.526 449.492 171.926 450.692L169.626 451.692L171.926 451.192C174.526 450.692 174.826 452.192 172.426 454.792C171.226 456.092 169.426 456.592 165.626 456.592C161.426 456.592 159.626 455.992 156.026 453.392L151.726 450.292L156.126 449.192C158.626 448.492 161.526 447.492 162.626 446.792C165.526 445.192 170.726 445.292 172.526 447.192ZM333.026 446.692C336.026 447.792 338.126 450.192 338.126 452.592C338.126 453.392 337.426 453.492 336.426 453.092C332.526 451.592 331.726 451.592 334.426 453.092C337.826 454.992 337.826 456.392 334.626 457.592C331.626 458.792 328.726 457.792 323.026 453.592C320.726 451.992 318.126 450.592 317.226 450.592C312.926 450.592 323.226 445.692 327.726 445.592C328.926 445.592 331.226 446.092 333.026 446.692ZM232.626 452.592C236.326 454.892 238.426 458.892 237.526 461.892C236.926 463.792 236.726 463.792 233.926 460.492C231.026 457.192 231.026 457.192 233.026 460.292C235.826 464.492 235.626 465.592 232.326 465.592C228.826 465.592 226.926 463.592 224.126 457.392C223.026 454.792 221.626 452.392 221.126 452.092C220.526 451.792 220.126 450.992 220.126 450.392C220.126 448.792 228.826 450.292 232.626 452.592ZM314.426 452.792C315.926 453.392 317.426 454.892 317.726 456.292C318.626 459.592 317.826 460.092 314.426 457.992L311.626 456.292L314.526 458.792C318.026 461.692 317.326 463.592 312.726 463.592C310.326 463.592 308.126 462.392 304.226 459.092C301.326 456.592 298.426 454.592 297.826 454.592C295.526 454.592 298.726 452.592 302.626 451.692C306.826 450.692 309.826 450.992 314.426 452.792ZM358.126 452.792C358.126 454.692 358.326 454.792 359.126 453.592C360.026 452.292 360.226 452.292 361.126 453.592C363.826 457.792 359.826 464.492 352.626 467.692C347.226 470.192 345.726 470.192 347.126 467.692C347.626 466.592 348.626 463.392 349.226 460.492C350.426 455.192 353.726 450.592 356.626 450.592C357.526 450.592 358.126 451.492 358.126 452.792ZM252.126 455.492C256.226 457.592 258.726 461.492 257.726 464.092C257.126 465.692 256.726 465.592 253.426 462.492L249.726 459.092L252.926 462.892C256.426 467.092 256.326 468.592 252.526 468.592C249.626 468.592 247.226 466.192 242.526 458.792L239.226 453.592H243.926C246.626 453.592 250.126 454.392 252.126 455.492ZM191.226 455.592C193.826 457.092 193.626 458.192 190.426 460.092C187.826 461.592 188.826 461.492 192.626 459.992C194.926 459.092 194.426 461.392 191.626 464.092C188.526 467.292 182.426 467.392 176.426 464.492C172.126 462.392 170.826 460.592 173.626 460.592C174.526 460.592 177.526 459.292 180.426 457.592C186.026 454.392 188.126 453.992 191.226 455.592ZM270.026 455.592C274.426 456.792 278.126 460.292 278.126 463.292C278.126 466.192 277.426 466.192 274.226 463.392C271.826 461.292 271.826 461.292 274.426 464.192C277.526 467.692 277.126 468.592 272.526 468.592C269.826 468.592 268.626 467.792 265.926 464.492C264.126 462.192 261.626 459.292 260.326 457.992L258.026 455.792L260.326 455.292C264.426 454.492 266.626 454.592 270.026 455.592ZM295.526 456.692C297.026 457.892 298.126 459.692 298.126 461.192C298.126 463.592 296.726 464.392 295.626 462.592C295.326 462.092 294.026 461.092 292.826 460.492C291.526 459.892 292.126 460.692 294.126 462.492C297.026 464.992 297.426 465.692 296.126 466.592C292.926 468.692 290.226 467.592 284.226 461.692C280.626 458.092 278.726 455.492 279.426 455.292C280.126 454.992 283.426 454.692 286.726 454.692C291.526 454.592 293.426 455.092 295.526 456.692ZM339.126 460.092C339.126 460.492 338.426 462.092 337.626 463.892C336.226 466.692 336.226 466.792 337.526 465.192C338.326 464.192 339.226 462.892 339.426 462.292C340.026 460.492 342.126 462.592 342.126 464.992C342.126 469.792 333.626 476.492 327.526 476.592C325.326 476.592 325.426 476.492 328.226 469.392C329.926 465.492 331.726 461.592 332.326 460.892C333.326 459.692 339.126 458.992 339.126 460.092ZM212.726 463.792C213.126 464.392 212.426 465.692 211.126 466.792C209.926 467.792 209.326 468.592 209.826 468.592C210.326 468.592 211.226 468.092 211.926 467.392C213.526 465.792 214.426 466.992 213.626 469.492C212.126 474.192 204.326 475.792 197.126 472.992C192.726 471.192 192.126 470.092 194.926 469.092C196.026 468.792 198.626 467.192 200.726 465.592C204.826 462.492 211.326 461.492 212.726 463.792ZM318.126 466.992C318.126 467.692 317.226 469.592 316.026 471.192C314.326 473.592 314.426 473.592 316.826 470.792C320.026 467.392 321.126 467.492 321.126 471.292C321.126 476.092 312.826 481.592 305.526 481.592C303.426 481.592 303.526 481.292 306.826 474.792C308.826 471.092 311.126 467.492 311.926 466.792C314.026 465.192 318.126 465.292 318.126 466.992ZM233.626 468.592C234.026 469.192 233.726 470.392 233.026 471.192C232.026 472.392 232.126 472.492 233.526 471.992C236.226 470.992 235.426 475.192 232.526 477.492C229.526 479.792 221.326 480.392 216.526 478.592L213.826 477.492L216.226 475.892C217.526 474.992 220.326 472.792 222.426 470.892C226.226 467.492 232.226 466.292 233.626 468.592ZM298.726 472.092C300.926 475.392 299.526 478.792 294.926 481.592C291.526 483.692 283.926 485.192 282.226 484.192C281.326 483.592 286.126 475.492 289.826 471.292C292.226 468.692 296.726 469.092 298.726 472.092ZM255.226 472.992C257.826 478.692 252.726 483.592 244.426 483.592C240.126 483.592 236.126 482.692 236.226 481.692C236.226 481.392 238.926 478.692 242.226 475.792C249.026 469.792 253.326 468.792 255.226 472.992ZM275.826 472.092C276.126 472.992 275.526 474.692 274.526 475.892C272.926 477.792 273.026 477.792 275.426 475.692L278.126 473.292V475.692C278.126 481.592 272.626 484.892 263.826 484.392L258.126 484.092L264.426 477.292C270.726 470.492 274.526 468.792 275.826 472.092Z" fill="black"/>
</svg>
