<svg width="100%" height="105%" viewBox="0 0 606 669" fill="none" xmlns="http://www.w3.org/2000/svg">
<path d="M413.206 579.141C429.915 551.216 454.483 536.91 487.063 536.529C519.642 536.147 536.084 519.552 536.618 486.897C537.076 454.394 551.229 429.826 579.154 413.193C607.156 396.484 613.221 374.014 597.275 345.555C581.405 317.172 581.405 288.789 597.275 260.33C613.221 231.947 607.194 209.515 579.154 192.806C551.229 176.059 537.038 151.529 536.618 118.873C536.084 86.3702 519.642 69.7754 487.063 69.3939C454.483 68.9362 429.915 54.7066 413.206 26.7815C396.497 -1.21987 374.027 -7.28556 345.644 8.66073C317.261 24.5307 288.802 24.5307 260.419 8.66073C231.998 -7.24741 209.529 -1.21987 192.819 26.7815C176.148 54.7447 151.542 68.9743 119.001 69.3939C86.4982 69.7754 69.9796 86.3702 69.5218 118.873C68.9878 151.529 54.8345 176.02 26.9094 192.806C-1.09197 209.515 -7.23395 231.909 8.78863 260.33C24.7349 288.789 24.7349 317.172 8.78863 345.555C-7.23395 374.014 -1.13011 396.522 26.9094 413.193C54.8345 429.826 69.0259 454.394 69.5218 486.897C69.9796 519.514 86.4982 536.147 119.001 536.529C151.58 536.91 176.148 551.216 192.858 579.141C209.567 607.142 232.037 613.208 260.419 597.185C288.802 581.468 317.261 581.468 345.644 597.185C374.027 613.17 396.535 607.142 413.206 579.141ZM303.108 481.212C204.607 481.212 124.8 401.405 124.8 302.904C124.8 204.48 204.607 124.672 303.108 124.672C401.533 124.672 481.34 204.48 481.34 302.904C481.34 401.405 401.533 481.212 303.108 481.212Z" fill="black"/>
<path d="M77.3129 546.713C77.3129 546.713 81.8908 562.66 116.149 562.66C195.155 564.376 169.672 629.115 233.724 630.717C233.724 630.294 226.218 645.637 214.905 669H15.0962L77.3129 546.713Z" fill="black"/>
<path d="M426.791 610.346C449.146 591.501 429.271 567.238 527.008 557.014L587.06 669H390.231L368.957 632.397C368.957 632.397 401.078 637.776 426.791 610.346Z" fill="black"/>
</svg>
